<mxfile host="Electron" modified="2024-03-19T11:21:12.691Z" agent="Mozilla/5.0 (X11; Linux x86_64) AppleWebKit/537.36 (KHTML, like Gecko) draw.io/24.0.4 Chrome/120.0.6099.109 Electron/28.1.0 Safari/537.36" etag="gIMkYvoVOJ4dtji4aJiN" version="24.0.4" type="device">
  <diagram name="Page-1" id="OHU-SYtt-npZF4PoFhkZ">
    <mxGraphModel dx="1258" dy="837" grid="1" gridSize="10" guides="1" tooltips="1" connect="1" arrows="1" fold="1" page="1" pageScale="1" pageWidth="4681" pageHeight="3300" math="0" shadow="0">
      <root>
        <mxCell id="0" />
        <mxCell id="1" parent="0" />
        <mxCell id="VpV34tValKDLqtTL0H20-1" value="Evenement" style="swimlane;fontStyle=1;align=center;verticalAlign=top;childLayout=stackLayout;horizontal=1;startSize=26;horizontalStack=0;resizeParent=1;resizeParentMax=0;resizeLast=0;collapsible=1;marginBottom=0;whiteSpace=wrap;html=1;" parent="1" vertex="1">
          <mxGeometry x="2220" y="1560" width="200" height="316" as="geometry" />
        </mxCell>
        <mxCell id="VpV34tValKDLqtTL0H20-2" value="- intitule: varchar(100)&lt;br&gt;- description: text&lt;br&gt;- visuel: varchar(255)&lt;br&gt;- debut: datetime&lt;br&gt;- fin: datetime&lt;br&gt;- debutInscriptions: date&lt;br&gt;- finInscriptions: date&lt;br&gt;- nbParticipantsMini: int&lt;br&gt;- nbParticipantsMaxi: int&lt;br&gt;- tarifNormal: float&lt;br&gt;- tarifReduit: float&lt;br&gt;- adresseSaisie: varchar(200)&lt;br&gt;&lt;div&gt;&lt;br&gt;&lt;/div&gt;" style="text;strokeColor=none;fillColor=none;align=left;verticalAlign=top;spacingLeft=4;spacingRight=4;overflow=hidden;rotatable=0;points=[[0,0.5],[1,0.5]];portConstraint=eastwest;whiteSpace=wrap;html=1;" parent="VpV34tValKDLqtTL0H20-1" vertex="1">
          <mxGeometry y="26" width="200" height="244" as="geometry" />
        </mxCell>
        <mxCell id="VpV34tValKDLqtTL0H20-3" value="" style="line;strokeWidth=1;fillColor=none;align=left;verticalAlign=middle;spacingTop=-1;spacingLeft=3;spacingRight=3;rotatable=0;labelPosition=right;points=[];portConstraint=eastwest;strokeColor=inherit;" parent="VpV34tValKDLqtTL0H20-1" vertex="1">
          <mxGeometry y="270" width="200" height="8" as="geometry" />
        </mxCell>
        <mxCell id="VpV34tValKDLqtTL0H20-4" value="+ reservations()&lt;br&gt;+ visuel()" style="text;strokeColor=none;fillColor=none;align=left;verticalAlign=top;spacingLeft=4;spacingRight=4;overflow=hidden;rotatable=0;points=[[0,0.5],[1,0.5]];portConstraint=eastwest;whiteSpace=wrap;html=1;" parent="VpV34tValKDLqtTL0H20-1" vertex="1">
          <mxGeometry y="278" width="200" height="38" as="geometry" />
        </mxCell>
        <mxCell id="VpV34tValKDLqtTL0H20-10" value="CategorieEvenement" style="swimlane;fontStyle=1;align=center;verticalAlign=top;childLayout=stackLayout;horizontal=1;startSize=26;horizontalStack=0;resizeParent=1;resizeParentMax=0;resizeLast=0;collapsible=1;marginBottom=0;whiteSpace=wrap;html=1;" parent="1" vertex="1">
          <mxGeometry x="2360" y="2000" width="160" height="114" as="geometry" />
        </mxCell>
        <mxCell id="VpV34tValKDLqtTL0H20-11" value="- libelle: varchar(100)" style="text;strokeColor=none;fillColor=none;align=left;verticalAlign=top;spacingLeft=4;spacingRight=4;overflow=hidden;rotatable=0;points=[[0,0.5],[1,0.5]];portConstraint=eastwest;whiteSpace=wrap;html=1;" parent="VpV34tValKDLqtTL0H20-10" vertex="1">
          <mxGeometry y="26" width="160" height="54" as="geometry" />
        </mxCell>
        <mxCell id="VpV34tValKDLqtTL0H20-12" value="" style="line;strokeWidth=1;fillColor=none;align=left;verticalAlign=middle;spacingTop=-1;spacingLeft=3;spacingRight=3;rotatable=0;labelPosition=right;points=[];portConstraint=eastwest;strokeColor=inherit;" parent="VpV34tValKDLqtTL0H20-10" vertex="1">
          <mxGeometry y="80" width="160" height="8" as="geometry" />
        </mxCell>
        <mxCell id="VpV34tValKDLqtTL0H20-13" value="+ evenements()" style="text;strokeColor=none;fillColor=none;align=left;verticalAlign=top;spacingLeft=4;spacingRight=4;overflow=hidden;rotatable=0;points=[[0,0.5],[1,0.5]];portConstraint=eastwest;whiteSpace=wrap;html=1;" parent="VpV34tValKDLqtTL0H20-10" vertex="1">
          <mxGeometry y="88" width="160" height="26" as="geometry" />
        </mxCell>
        <mxCell id="VpV34tValKDLqtTL0H20-18" value="" style="endArrow=none;html=1;rounded=0;align=center;verticalAlign=bottom;labelBackgroundColor=none;exitX=0.75;exitY=0;exitDx=0;exitDy=0;entryX=0.997;entryY=0.632;entryDx=0;entryDy=0;entryPerimeter=0;" parent="VpV34tValKDLqtTL0H20-10" source="VpV34tValKDLqtTL0H20-10" target="VpV34tValKDLqtTL0H20-11" edge="1">
          <mxGeometry relative="1" as="geometry">
            <mxPoint x="90" y="-30" as="sourcePoint" />
            <mxPoint x="200" y="60" as="targetPoint" />
            <Array as="points">
              <mxPoint x="120" y="-40" />
              <mxPoint x="240" y="-40" />
              <mxPoint x="240" y="60" />
            </Array>
          </mxGeometry>
        </mxCell>
        <mxCell id="VpV34tValKDLqtTL0H20-17" value="" style="triangle;aspect=fixed;fillColor=strokeColor;verticalAlign=bottom;movable=1;resizable=1;rotatable=1;deletable=1;editable=1;locked=0;connectable=1;" parent="1" vertex="1">
          <mxGeometry x="2540" y="1940" width="10" height="10" as="geometry" />
        </mxCell>
        <mxCell id="VpV34tValKDLqtTL0H20-22" value="Parent de" style="text;html=1;align=center;verticalAlign=top;resizable=0;points=[];autosize=1;strokeColor=none;fillColor=none;fontSize=10;" parent="1" vertex="1">
          <mxGeometry x="2530" y="2035" width="70" height="30" as="geometry" />
        </mxCell>
        <mxCell id="VpV34tValKDLqtTL0H20-26" value="&lt;span style=&quot;font-size: 10px;&quot;&gt;Sous-catÃ©gorie&lt;/span&gt;" style="text;html=1;align=center;verticalAlign=bottom;resizable=0;points=[];autosize=1;strokeColor=none;fillColor=none;" parent="1" vertex="1">
          <mxGeometry x="2530" y="2050" width="90" height="30" as="geometry" />
        </mxCell>
        <mxCell id="VpV34tValKDLqtTL0H20-67" value="Staff" style="swimlane;fontStyle=1;align=center;verticalAlign=top;childLayout=stackLayout;horizontal=1;startSize=26;horizontalStack=0;resizeParent=1;resizeParentMax=0;resizeLast=0;collapsible=1;marginBottom=0;whiteSpace=wrap;html=1;" parent="1" vertex="1">
          <mxGeometry x="2240" y="1180" width="160" height="100" as="geometry" />
        </mxCell>
        <mxCell id="VpV34tValKDLqtTL0H20-68" value="- username: varchar(255)&lt;br&gt;- password: varchar(255)&lt;br&gt;- email: varchar(255)&lt;br&gt;- roles: json" style="text;strokeColor=none;fillColor=none;align=left;verticalAlign=top;spacingLeft=4;spacingRight=4;overflow=hidden;rotatable=0;points=[[0,0.5],[1,0.5]];portConstraint=eastwest;whiteSpace=wrap;html=1;" parent="VpV34tValKDLqtTL0H20-67" vertex="1">
          <mxGeometry y="26" width="160" height="74" as="geometry" />
        </mxCell>
        <mxCell id="VpV34tValKDLqtTL0H20-81" value="1" style="text;html=1;align=center;verticalAlign=middle;resizable=0;points=[];autosize=1;strokeColor=none;fillColor=none;" parent="1" vertex="1">
          <mxGeometry x="2475" y="1978" width="30" height="30" as="geometry" />
        </mxCell>
        <mxCell id="VpV34tValKDLqtTL0H20-82" value="1" style="text;html=1;align=center;verticalAlign=bottom;resizable=0;points=[];autosize=1;strokeColor=none;fillColor=none;" parent="1" vertex="1">
          <mxGeometry x="2510" y="2050" width="30" height="30" as="geometry" />
        </mxCell>
        <mxCell id="VpV34tValKDLqtTL0H20-83" value="" style="verticalAlign=bottom;html=1;endArrow=none;edgeStyle=orthogonalEdgeStyle;rounded=0;entryX=0.5;entryY=1;entryDx=0;entryDy=0;" parent="1" edge="1">
          <mxGeometry relative="1" as="geometry">
            <mxPoint x="2440" y="2000" as="sourcePoint" />
            <mxPoint x="2360" y="1876" as="targetPoint" />
            <Array as="points">
              <mxPoint x="2440" y="1999" />
              <mxPoint x="2440" y="1940" />
              <mxPoint x="2360" y="1940" />
            </Array>
          </mxGeometry>
        </mxCell>
        <mxCell id="VpV34tValKDLqtTL0H20-84" value="1" style="resizable=0;html=1;align=left;verticalAlign=top;labelBackgroundColor=none;fontSize=10" parent="VpV34tValKDLqtTL0H20-83" connectable="0" vertex="1">
          <mxGeometry x="-1" relative="1" as="geometry">
            <mxPoint x="-20" y="-30" as="offset" />
          </mxGeometry>
        </mxCell>
        <mxCell id="VpV34tValKDLqtTL0H20-86" value="0..*" style="resizable=0;html=1;align=right;verticalAlign=top;labelBackgroundColor=none;fontSize=10" parent="VpV34tValKDLqtTL0H20-83" connectable="0" vertex="1">
          <mxGeometry x="0.9" relative="1" as="geometry">
            <mxPoint x="-6" y="-6" as="offset" />
          </mxGeometry>
        </mxCell>
        <mxCell id="VpV34tValKDLqtTL0H20-91" value="" style="verticalAlign=bottom;html=1;endArrow=none;edgeStyle=orthogonalEdgeStyle;rounded=0;entryX=0.5;entryY=0;entryDx=0;entryDy=0;" parent="1" edge="1">
          <mxGeometry relative="1" as="geometry">
            <mxPoint x="2420" y="1670" as="sourcePoint" />
            <mxPoint x="2520" y="1670" as="targetPoint" />
            <Array as="points" />
          </mxGeometry>
        </mxCell>
        <mxCell id="VpV34tValKDLqtTL0H20-92" value="1" style="resizable=0;html=1;align=left;verticalAlign=top;labelBackgroundColor=none;fontSize=10" parent="VpV34tValKDLqtTL0H20-91" connectable="0" vertex="1">
          <mxGeometry x="-1" relative="1" as="geometry" />
        </mxCell>
        <mxCell id="VpV34tValKDLqtTL0H20-93" value="0..*" style="resizable=0;html=1;align=right;verticalAlign=top;labelBackgroundColor=none;fontSize=10" parent="VpV34tValKDLqtTL0H20-91" connectable="0" vertex="1">
          <mxGeometry x="0.9" relative="1" as="geometry">
            <mxPoint x="-6" y="-19" as="offset" />
          </mxGeometry>
        </mxCell>
        <mxCell id="VpV34tValKDLqtTL0H20-102" value="" style="verticalAlign=bottom;html=1;endArrow=none;edgeStyle=orthogonalEdgeStyle;rounded=0;entryX=0;entryY=0.405;entryDx=0;entryDy=0;entryPerimeter=0;" parent="1" target="MEfozvx0OPqX_W-I6Wp5-21" edge="1">
          <mxGeometry relative="1" as="geometry">
            <mxPoint x="2220" y="1630" as="sourcePoint" />
            <mxPoint x="2150" y="1400" as="targetPoint" />
            <mxPoint as="offset" />
            <Array as="points">
              <mxPoint x="2160" y="1630" />
              <mxPoint x="2160" y="1400" />
              <mxPoint x="2240" y="1400" />
            </Array>
          </mxGeometry>
        </mxCell>
        <mxCell id="VpV34tValKDLqtTL0H20-103" value="0..*" style="resizable=0;html=1;align=left;verticalAlign=top;labelBackgroundColor=none;fontSize=10" parent="VpV34tValKDLqtTL0H20-102" connectable="0" vertex="1">
          <mxGeometry x="-1" relative="1" as="geometry">
            <mxPoint x="-31" y="2" as="offset" />
          </mxGeometry>
        </mxCell>
        <mxCell id="VpV34tValKDLqtTL0H20-104" value="" style="resizable=0;html=1;align=left;verticalAlign=bottom;labelBackgroundColor=none;fontSize=10" parent="VpV34tValKDLqtTL0H20-102" connectable="0" vertex="1">
          <mxGeometry x="-1" relative="1" as="geometry" />
        </mxCell>
        <mxCell id="VpV34tValKDLqtTL0H20-105" value="1" style="resizable=0;html=1;align=right;verticalAlign=top;labelBackgroundColor=none;fontSize=10" parent="VpV34tValKDLqtTL0H20-102" connectable="0" vertex="1">
          <mxGeometry x="0.9" relative="1" as="geometry" />
        </mxCell>
        <mxCell id="VpV34tValKDLqtTL0H20-106" value="" style="resizable=0;html=1;align=right;verticalAlign=bottom;labelBackgroundColor=none;fontSize=10" parent="VpV34tValKDLqtTL0H20-102" connectable="0" vertex="1">
          <mxGeometry x="0.9" relative="1" as="geometry" />
        </mxCell>
        <mxCell id="MEfozvx0OPqX_W-I6Wp5-6" value="Participant" style="swimlane;fontStyle=1;align=center;verticalAlign=top;childLayout=stackLayout;horizontal=1;startSize=26;horizontalStack=0;resizeParent=1;resizeParentMax=0;resizeLast=0;collapsible=1;marginBottom=0;whiteSpace=wrap;html=1;" parent="1" vertex="1">
          <mxGeometry x="2520" y="1801" width="160" height="90" as="geometry" />
        </mxCell>
        <mxCell id="MEfozvx0OPqX_W-I6Wp5-7" value="- prenom: varchar(30)&lt;br&gt;- nom: varchar(30)&lt;br&gt;- email: varchar(255)" style="text;strokeColor=none;fillColor=none;align=left;verticalAlign=top;spacingLeft=4;spacingRight=4;overflow=hidden;rotatable=0;points=[[0,0.5],[1,0.5]];portConstraint=eastwest;whiteSpace=wrap;html=1;" parent="MEfozvx0OPqX_W-I6Wp5-6" vertex="1">
          <mxGeometry y="26" width="160" height="64" as="geometry" />
        </mxCell>
        <mxCell id="MEfozvx0OPqX_W-I6Wp5-10" value="" style="verticalAlign=bottom;html=1;endArrow=none;edgeStyle=orthogonalEdgeStyle;rounded=0;" parent="1" target="MEfozvx0OPqX_W-I6Wp5-6" edge="1">
          <mxGeometry relative="1" as="geometry">
            <mxPoint x="2599.5" y="1740" as="sourcePoint" />
            <mxPoint x="2600" y="1846" as="targetPoint" />
            <Array as="points" />
          </mxGeometry>
        </mxCell>
        <mxCell id="MEfozvx0OPqX_W-I6Wp5-11" value="1" style="resizable=0;html=1;align=left;verticalAlign=top;labelBackgroundColor=none;fontSize=10" parent="MEfozvx0OPqX_W-I6Wp5-10" connectable="0" vertex="1">
          <mxGeometry x="-1" relative="1" as="geometry">
            <mxPoint x="11" as="offset" />
          </mxGeometry>
        </mxCell>
        <mxCell id="MEfozvx0OPqX_W-I6Wp5-12" value="1..*" style="resizable=0;html=1;align=right;verticalAlign=top;labelBackgroundColor=none;fontSize=10" parent="MEfozvx0OPqX_W-I6Wp5-10" connectable="0" vertex="1">
          <mxGeometry x="0.9" relative="1" as="geometry">
            <mxPoint x="-6" y="-19" as="offset" />
          </mxGeometry>
        </mxCell>
        <mxCell id="MEfozvx0OPqX_W-I6Wp5-20" value="User" style="swimlane;fontStyle=1;align=center;verticalAlign=top;childLayout=stackLayout;horizontal=1;startSize=26;horizontalStack=0;resizeParent=1;resizeParentMax=0;resizeLast=0;collapsible=1;marginBottom=0;whiteSpace=wrap;html=1;" parent="1" vertex="1">
          <mxGeometry x="2240" y="1320" width="160" height="218" as="geometry" />
        </mxCell>
        <mxCell id="MEfozvx0OPqX_W-I6Wp5-21" value="- email: varchar(255)&lt;br style=&quot;border-color: var(--border-color);&quot;&gt;- password: varchar(255)&lt;br style=&quot;border-color: var(--border-color);&quot;&gt;- prenom: varchar(30)&lt;br style=&quot;border-color: var(--border-color);&quot;&gt;- nom: varchar(30)&lt;br&gt;- telephone: varchar(30)&lt;br&gt;- organisateur: boolean&lt;br&gt;- favoris: json" style="text;strokeColor=none;fillColor=none;align=left;verticalAlign=top;spacingLeft=4;spacingRight=4;overflow=hidden;rotatable=0;points=[[0,0.5],[1,0.5]];portConstraint=eastwest;whiteSpace=wrap;html=1;" parent="MEfozvx0OPqX_W-I6Wp5-20" vertex="1">
          <mxGeometry y="26" width="160" height="124" as="geometry" />
        </mxCell>
        <mxCell id="MEfozvx0OPqX_W-I6Wp5-22" value="" style="line;strokeWidth=1;fillColor=none;align=left;verticalAlign=middle;spacingTop=-1;spacingLeft=3;spacingRight=3;rotatable=0;labelPosition=right;points=[];portConstraint=eastwest;strokeColor=inherit;" parent="MEfozvx0OPqX_W-I6Wp5-20" vertex="1">
          <mxGeometry y="150" width="160" height="8" as="geometry" />
        </mxCell>
        <mxCell id="MEfozvx0OPqX_W-I6Wp5-23" value="+ reservations()&lt;br&gt;+ evenements()" style="text;strokeColor=none;fillColor=none;align=left;verticalAlign=top;spacingLeft=4;spacingRight=4;overflow=hidden;rotatable=0;points=[[0,0.5],[1,0.5]];portConstraint=eastwest;whiteSpace=wrap;html=1;" parent="MEfozvx0OPqX_W-I6Wp5-20" vertex="1">
          <mxGeometry y="158" width="160" height="60" as="geometry" />
        </mxCell>
        <mxCell id="TFP5KlyqbaO1eXCvGINk-2" value="" style="verticalAlign=bottom;html=1;endArrow=none;edgeStyle=orthogonalEdgeStyle;rounded=0;exitX=0.5;exitY=0;exitDx=0;exitDy=0;entryX=1;entryY=0.411;entryDx=0;entryDy=0;entryPerimeter=0;" parent="1" target="MEfozvx0OPqX_W-I6Wp5-21" edge="1">
          <mxGeometry relative="1" as="geometry">
            <mxPoint x="2599.58" y="1600" as="sourcePoint" />
            <mxPoint x="2599.58" y="1400" as="targetPoint" />
            <mxPoint as="offset" />
            <Array as="points">
              <mxPoint x="2600" y="1580" />
              <mxPoint x="2599" y="1401" />
            </Array>
          </mxGeometry>
        </mxCell>
        <mxCell id="TFP5KlyqbaO1eXCvGINk-3" value="0..*" style="resizable=0;html=1;align=left;verticalAlign=top;labelBackgroundColor=none;fontSize=10" parent="TFP5KlyqbaO1eXCvGINk-2" connectable="0" vertex="1">
          <mxGeometry x="-1" relative="1" as="geometry">
            <mxPoint x="-31" y="-30" as="offset" />
          </mxGeometry>
        </mxCell>
        <mxCell id="TFP5KlyqbaO1eXCvGINk-4" value="" style="resizable=0;html=1;align=left;verticalAlign=bottom;labelBackgroundColor=none;fontSize=10" parent="TFP5KlyqbaO1eXCvGINk-2" connectable="0" vertex="1">
          <mxGeometry x="-1" relative="1" as="geometry" />
        </mxCell>
        <mxCell id="TFP5KlyqbaO1eXCvGINk-5" value="1" style="resizable=0;html=1;align=right;verticalAlign=top;labelBackgroundColor=none;fontSize=10" parent="TFP5KlyqbaO1eXCvGINk-2" connectable="0" vertex="1">
          <mxGeometry x="0.9" relative="1" as="geometry" />
        </mxCell>
        <mxCell id="TFP5KlyqbaO1eXCvGINk-6" value="" style="resizable=0;html=1;align=right;verticalAlign=bottom;labelBackgroundColor=none;fontSize=10" parent="TFP5KlyqbaO1eXCvGINk-2" connectable="0" vertex="1">
          <mxGeometry x="0.9" relative="1" as="geometry" />
        </mxCell>
        <mxCell id="TFP5KlyqbaO1eXCvGINk-37" value="Reservation" style="swimlane;fontStyle=1;align=center;verticalAlign=top;childLayout=stackLayout;horizontal=1;startSize=26;horizontalStack=0;resizeParent=1;resizeParentMax=0;resizeLast=0;collapsible=1;marginBottom=0;whiteSpace=wrap;html=1;" parent="1" vertex="1">
          <mxGeometry x="2520" y="1600" width="160" height="140" as="geometry" />
        </mxCell>
        <mxCell id="TFP5KlyqbaO1eXCvGINk-38" value="- montant: float&lt;br&gt;- sessionId: varchar(255)" style="text;strokeColor=none;fillColor=none;align=left;verticalAlign=top;spacingLeft=4;spacingRight=4;overflow=hidden;rotatable=0;points=[[0,0.5],[1,0.5]];portConstraint=eastwest;whiteSpace=wrap;html=1;" parent="TFP5KlyqbaO1eXCvGINk-37" vertex="1">
          <mxGeometry y="26" width="160" height="44" as="geometry" />
        </mxCell>
        <mxCell id="TFP5KlyqbaO1eXCvGINk-39" value="" style="line;strokeWidth=1;fillColor=none;align=left;verticalAlign=middle;spacingTop=-1;spacingLeft=3;spacingRight=3;rotatable=0;labelPosition=right;points=[];portConstraint=eastwest;strokeColor=inherit;" parent="TFP5KlyqbaO1eXCvGINk-37" vertex="1">
          <mxGeometry y="70" width="160" height="8" as="geometry" />
        </mxCell>
        <mxCell id="TFP5KlyqbaO1eXCvGINk-40" value="+ participants()&lt;br&gt;+ addParticipant()&lt;br&gt;+ removeParticipant()" style="text;strokeColor=none;fillColor=none;align=left;verticalAlign=top;spacingLeft=4;spacingRight=4;overflow=hidden;rotatable=0;points=[[0,0.5],[1,0.5]];portConstraint=eastwest;whiteSpace=wrap;html=1;" parent="TFP5KlyqbaO1eXCvGINk-37" vertex="1">
          <mxGeometry y="78" width="160" height="62" as="geometry" />
        </mxCell>
        <mxCell id="LcyQs51aL2aPvS2Q7SMc-1" value="StatutEvenement" style="swimlane;fontStyle=1;align=center;verticalAlign=top;childLayout=stackLayout;horizontal=1;startSize=26;horizontalStack=0;resizeParent=1;resizeParentMax=0;resizeLast=0;collapsible=1;marginBottom=0;whiteSpace=wrap;html=1;" parent="1" vertex="1">
          <mxGeometry x="2120" y="2000" width="160" height="52" as="geometry" />
        </mxCell>
        <mxCell id="LcyQs51aL2aPvS2Q7SMc-2" value="- libelle: varchar(30)" style="text;strokeColor=none;fillColor=none;align=left;verticalAlign=top;spacingLeft=4;spacingRight=4;overflow=hidden;rotatable=0;points=[[0,0.5],[1,0.5]];portConstraint=eastwest;whiteSpace=wrap;html=1;" parent="LcyQs51aL2aPvS2Q7SMc-1" vertex="1">
          <mxGeometry y="26" width="160" height="26" as="geometry" />
        </mxCell>
        <mxCell id="LcyQs51aL2aPvS2Q7SMc-3" value="" style="endArrow=none;html=1;endSize=12;startArrow=none;startSize=14;startFill=0;edgeStyle=orthogonalEdgeStyle;rounded=0;endFill=0;entryX=0.269;entryY=1.053;entryDx=0;entryDy=0;entryPerimeter=0;exitX=0.5;exitY=0;exitDx=0;exitDy=0;" parent="1" source="LcyQs51aL2aPvS2Q7SMc-1" edge="1">
          <mxGeometry relative="1" as="geometry">
            <mxPoint x="2096.96" y="1919.99" as="sourcePoint" />
            <mxPoint x="2280" y="1876.0039999999997" as="targetPoint" />
            <Array as="points">
              <mxPoint x="2200" y="1940" />
              <mxPoint x="2280" y="1940" />
            </Array>
          </mxGeometry>
        </mxCell>
        <mxCell id="LcyQs51aL2aPvS2Q7SMc-4" value="1" style="edgeLabel;resizable=0;html=1;align=left;verticalAlign=top;" parent="LcyQs51aL2aPvS2Q7SMc-3" connectable="0" vertex="1">
          <mxGeometry x="-1" relative="1" as="geometry">
            <mxPoint x="-20" y="-30" as="offset" />
          </mxGeometry>
        </mxCell>
        <mxCell id="LcyQs51aL2aPvS2Q7SMc-5" value="0..*" style="edgeLabel;resizable=0;html=1;align=right;verticalAlign=top;" parent="LcyQs51aL2aPvS2Q7SMc-3" connectable="0" vertex="1">
          <mxGeometry x="1" relative="1" as="geometry">
            <mxPoint x="-10" as="offset" />
          </mxGeometry>
        </mxCell>
        <mxCell id="LcyQs51aL2aPvS2Q7SMc-6" value="En attente de validation&lt;br&gt;ValidÃ©&lt;br&gt;RefusÃ©&lt;br&gt;AnnulÃ©" style="shape=note2;boundedLbl=1;whiteSpace=wrap;html=1;size=25;verticalAlign=top;align=left;spacingLeft=5;labelBackgroundColor=none;fillColor=#f5f5f5;fontColor=#333333;strokeColor=#666666;" parent="1" vertex="1">
          <mxGeometry x="2120" y="2080" width="150" height="100" as="geometry" />
        </mxCell>
        <mxCell id="LcyQs51aL2aPvS2Q7SMc-7" value="" style="endArrow=none;dashed=1;html=1;rounded=0;exitX=0.375;exitY=1.031;exitDx=0;exitDy=0;exitPerimeter=0;entryX=0.4;entryY=0;entryDx=0;entryDy=0;entryPerimeter=0;" parent="1" source="LcyQs51aL2aPvS2Q7SMc-2" target="LcyQs51aL2aPvS2Q7SMc-6" edge="1">
          <mxGeometry width="50" height="50" relative="1" as="geometry">
            <mxPoint x="2194.68" y="2052.004" as="sourcePoint" />
            <mxPoint x="2195.32" y="2081.33" as="targetPoint" />
          </mxGeometry>
        </mxCell>
        <mxCell id="LcyQs51aL2aPvS2Q7SMc-9" value="StatutReservation" style="swimlane;fontStyle=1;align=center;verticalAlign=top;childLayout=stackLayout;horizontal=1;startSize=26;horizontalStack=0;resizeParent=1;resizeParentMax=0;resizeLast=0;collapsible=1;marginBottom=0;whiteSpace=wrap;html=1;" parent="1" vertex="1">
          <mxGeometry x="2760" y="1640" width="160" height="52" as="geometry" />
        </mxCell>
        <mxCell id="LcyQs51aL2aPvS2Q7SMc-10" value="- libelle: varchar(30)" style="text;strokeColor=none;fillColor=none;align=left;verticalAlign=top;spacingLeft=4;spacingRight=4;overflow=hidden;rotatable=0;points=[[0,0.5],[1,0.5]];portConstraint=eastwest;whiteSpace=wrap;html=1;" parent="LcyQs51aL2aPvS2Q7SMc-9" vertex="1">
          <mxGeometry y="26" width="160" height="26" as="geometry" />
        </mxCell>
        <mxCell id="LcyQs51aL2aPvS2Q7SMc-11" value="" style="endArrow=none;html=1;endSize=12;startArrow=none;startSize=14;startFill=0;edgeStyle=orthogonalEdgeStyle;rounded=0;endFill=0;" parent="1" edge="1">
          <mxGeometry relative="1" as="geometry">
            <mxPoint x="2679.9700000000003" y="1660" as="sourcePoint" />
            <mxPoint x="2759.9700000000003" y="1660" as="targetPoint" />
            <Array as="points">
              <mxPoint x="2759.9700000000003" y="1660" />
            </Array>
          </mxGeometry>
        </mxCell>
        <mxCell id="LcyQs51aL2aPvS2Q7SMc-12" value="1" style="edgeLabel;resizable=0;html=1;align=left;verticalAlign=top;" parent="LcyQs51aL2aPvS2Q7SMc-11" connectable="0" vertex="1">
          <mxGeometry x="-1" relative="1" as="geometry">
            <mxPoint x="10" as="offset" />
          </mxGeometry>
        </mxCell>
        <mxCell id="LcyQs51aL2aPvS2Q7SMc-13" value="1" style="edgeLabel;resizable=0;html=1;align=right;verticalAlign=top;" parent="LcyQs51aL2aPvS2Q7SMc-11" connectable="0" vertex="1">
          <mxGeometry x="1" relative="1" as="geometry">
            <mxPoint x="-10" as="offset" />
          </mxGeometry>
        </mxCell>
        <mxCell id="LcyQs51aL2aPvS2Q7SMc-14" value="ValidÃ©e&lt;br&gt;AnnulÃ©e" style="shape=note2;boundedLbl=1;whiteSpace=wrap;html=1;size=25;verticalAlign=top;align=left;spacingLeft=5;labelBackgroundColor=none;fillColor=#f5f5f5;fontColor=#333333;strokeColor=#666666;" parent="1" vertex="1">
          <mxGeometry x="2820" y="1530" width="80" height="70" as="geometry" />
        </mxCell>
        <mxCell id="LcyQs51aL2aPvS2Q7SMc-15" value="" style="endArrow=none;dashed=1;html=1;rounded=0;entryX=0.624;entryY=-0.019;entryDx=0;entryDy=0;exitX=0.5;exitY=1;exitDx=0;exitDy=0;exitPerimeter=0;entryPerimeter=0;" parent="1" source="LcyQs51aL2aPvS2Q7SMc-14" target="LcyQs51aL2aPvS2Q7SMc-9" edge="1">
          <mxGeometry width="50" height="50" relative="1" as="geometry">
            <mxPoint x="2860" y="1620" as="sourcePoint" />
            <mxPoint x="2900" y="1620" as="targetPoint" />
          </mxGeometry>
        </mxCell>
        <mxCell id="NiPJiTK_CVauFB1GZ6C2-8" value="Adresse" style="swimlane;fontStyle=1;align=center;verticalAlign=top;childLayout=stackLayout;horizontal=1;startSize=26;horizontalStack=0;resizeParent=1;resizeParentMax=0;resizeLast=0;collapsible=1;marginBottom=0;whiteSpace=wrap;html=1;" parent="1" vertex="1">
          <mxGeometry x="1740" y="1780" width="260" height="400" as="geometry" />
        </mxCell>
        <mxCell id="NiPJiTK_CVauFB1GZ6C2-9" value="- idUnique: varchar(255)&lt;br&gt;- idFantoir: varchar(255)&lt;br&gt;- numero: varchar(255)&lt;br&gt;- rep: varchar(255)&lt;br&gt;- nomVoie: varchar(255)&lt;br&gt;- codePostal: varchar(255)&lt;br&gt;- codeInsee: varchar(255)&lt;br&gt;- nomCommune: varchar(255)&lt;br&gt;- codeInseeAncienneCommune: varchar(255)&lt;br&gt;- nomAncienneCommune: varchar(255)&lt;br&gt;- x: varchar(255)&lt;br&gt;- y: varchar(255)&lt;br&gt;- lon: varchar(255)&lt;br&gt;- lat: varchar(255)&lt;br&gt;- typePosition: varchar(255)&lt;br&gt;- alias: varchar(255)&lt;br&gt;- nomLd: varchar(255)&lt;br&gt;- libelleAcheminement: varchar(255)&lt;br&gt;- nomAfnor: varchar(255)&lt;br&gt;- sourcePosition: varchar(255)&lt;br&gt;- sourceNomVoie: varchar(255)&lt;br&gt;- certificationCommune: varchar(255)&lt;br&gt;- cadParcelles: text" style="text;strokeColor=none;fillColor=none;align=left;verticalAlign=top;spacingLeft=4;spacingRight=4;overflow=hidden;rotatable=0;points=[[0,0.5],[1,0.5]];portConstraint=eastwest;whiteSpace=wrap;html=1;" parent="NiPJiTK_CVauFB1GZ6C2-8" vertex="1">
          <mxGeometry y="26" width="260" height="374" as="geometry" />
        </mxCell>
        <mxCell id="NiPJiTK_CVauFB1GZ6C2-15" value="" style="endArrow=none;html=1;endSize=12;startArrow=none;startSize=14;startFill=0;edgeStyle=orthogonalEdgeStyle;rounded=0;endFill=0;" parent="1" edge="1">
          <mxGeometry relative="1" as="geometry">
            <mxPoint x="2000" y="1815" as="sourcePoint" />
            <mxPoint x="2210" y="1815" as="targetPoint" />
            <Array as="points">
              <mxPoint x="2220" y="1815.3" />
            </Array>
          </mxGeometry>
        </mxCell>
        <mxCell id="NiPJiTK_CVauFB1GZ6C2-16" value="0..1" style="edgeLabel;resizable=0;html=1;align=left;verticalAlign=top;" parent="NiPJiTK_CVauFB1GZ6C2-15" connectable="0" vertex="1">
          <mxGeometry x="-1" relative="1" as="geometry">
            <mxPoint x="10" as="offset" />
          </mxGeometry>
        </mxCell>
        <mxCell id="NiPJiTK_CVauFB1GZ6C2-17" value="0..*" style="edgeLabel;resizable=0;html=1;align=right;verticalAlign=top;" parent="NiPJiTK_CVauFB1GZ6C2-15" connectable="0" vertex="1">
          <mxGeometry x="1" relative="1" as="geometry">
            <mxPoint x="-10" as="offset" />
          </mxGeometry>
        </mxCell>
        <mxCell id="s8bDWCLdQmTpXwTjZyR9-1" value="" style="endArrow=none;html=1;endSize=12;startArrow=none;startSize=14;startFill=0;edgeStyle=orthogonalEdgeStyle;rounded=0;endFill=0;exitX=-0.004;exitY=0.551;exitDx=0;exitDy=0;exitPerimeter=0;" parent="1" source="VpV34tValKDLqtTL0H20-2" edge="1">
          <mxGeometry relative="1" as="geometry">
            <mxPoint x="2020" y="1720" as="sourcePoint" />
            <mxPoint x="1920" y="1640" as="targetPoint" />
            <Array as="points">
              <mxPoint x="1920" y="1720" />
            </Array>
          </mxGeometry>
        </mxCell>
        <mxCell id="s8bDWCLdQmTpXwTjZyR9-2" value="0..*" style="edgeLabel;resizable=0;html=1;align=left;verticalAlign=top;" parent="s8bDWCLdQmTpXwTjZyR9-1" connectable="0" vertex="1">
          <mxGeometry x="-1" relative="1" as="geometry">
            <mxPoint x="-28" as="offset" />
          </mxGeometry>
        </mxCell>
        <mxCell id="s8bDWCLdQmTpXwTjZyR9-3" value="1" style="edgeLabel;resizable=0;html=1;align=right;verticalAlign=top;" parent="s8bDWCLdQmTpXwTjZyR9-1" connectable="0" vertex="1">
          <mxGeometry x="1" relative="1" as="geometry">
            <mxPoint x="-10" as="offset" />
          </mxGeometry>
        </mxCell>
        <mxCell id="s8bDWCLdQmTpXwTjZyR9-5" value="Localite" style="swimlane;fontStyle=1;align=center;verticalAlign=top;childLayout=stackLayout;horizontal=1;startSize=26;horizontalStack=0;resizeParent=1;resizeParentMax=0;resizeLast=0;collapsible=1;marginBottom=0;whiteSpace=wrap;html=1;" parent="1" vertex="1">
          <mxGeometry x="1815" y="1394" width="210" height="246" as="geometry" />
        </mxCell>
        <mxCell id="s8bDWCLdQmTpXwTjZyR9-6" value="- inseeCode: varchar(255)&lt;br style=&quot;border-color: var(--border-color);&quot;&gt;- cityCode: varchar(255)&lt;br style=&quot;border-color: var(--border-color);&quot;&gt;- zipCode: varchar(255)&lt;br style=&quot;border-color: var(--border-color);&quot;&gt;- label: varchar(255)&lt;br style=&quot;border-color: var(--border-color);&quot;&gt;- latitude: varchar(255)&lt;br style=&quot;border-color: var(--border-color);&quot;&gt;- longitude: varchar(255)&lt;br style=&quot;border-color: var(--border-color);&quot;&gt;- departmentName: varchar(255)&lt;br style=&quot;border-color: var(--border-color);&quot;&gt;- departmentNumber: varchar(255)&lt;br style=&quot;border-color: var(--border-color);&quot;&gt;- regionName: varchar(255)&lt;br style=&quot;border-color: var(--border-color);&quot;&gt;- regionGeojsonName: varchar(255)" style="text;strokeColor=none;fillColor=none;align=left;verticalAlign=top;spacingLeft=4;spacingRight=4;overflow=hidden;rotatable=0;points=[[0,0.5],[1,0.5]];portConstraint=eastwest;whiteSpace=wrap;html=1;" parent="s8bDWCLdQmTpXwTjZyR9-5" vertex="1">
          <mxGeometry y="26" width="210" height="174" as="geometry" />
        </mxCell>
        <mxCell id="s8bDWCLdQmTpXwTjZyR9-7" value="" style="line;strokeWidth=1;fillColor=none;align=left;verticalAlign=middle;spacingTop=-1;spacingLeft=3;spacingRight=3;rotatable=0;labelPosition=right;points=[];portConstraint=eastwest;strokeColor=inherit;" parent="s8bDWCLdQmTpXwTjZyR9-5" vertex="1">
          <mxGeometry y="200" width="210" height="8" as="geometry" />
        </mxCell>
        <mxCell id="s8bDWCLdQmTpXwTjZyR9-8" value="+ evenements()" style="text;strokeColor=none;fillColor=none;align=left;verticalAlign=top;spacingLeft=4;spacingRight=4;overflow=hidden;rotatable=0;points=[[0,0.5],[1,0.5]];portConstraint=eastwest;whiteSpace=wrap;html=1;" parent="s8bDWCLdQmTpXwTjZyR9-5" vertex="1">
          <mxGeometry y="208" width="210" height="38" as="geometry" />
        </mxCell>
        <mxCell id="MOf1x-F4TcwAhBPFR_0l-1" value="Index sur idUnique" style="shape=note2;boundedLbl=1;whiteSpace=wrap;html=1;size=25;verticalAlign=top;align=left;spacingLeft=5;labelBackgroundColor=none;fillColor=#f5f5f5;fontColor=#333333;strokeColor=#666666;" parent="1" vertex="1">
          <mxGeometry x="1680" y="1688" width="120" height="60" as="geometry" />
        </mxCell>
        <mxCell id="MOf1x-F4TcwAhBPFR_0l-2" value="" style="endArrow=none;dashed=1;html=1;rounded=0;entryX=0.4;entryY=0;entryDx=0;entryDy=0;entryPerimeter=0;" parent="1" edge="1">
          <mxGeometry width="50" height="50" relative="1" as="geometry">
            <mxPoint x="1760" y="1750" as="sourcePoint" />
            <mxPoint x="1760" y="1780" as="targetPoint" />
          </mxGeometry>
        </mxCell>
      </root>
    </mxGraphModel>
  </diagram>
</mxfile>
